<svg xmlns="http://www.w3.org/2000/svg" width="900" height="560">
<rect width="100%" height="100%" fill="white"/>
<text x="20" y="24" font-family="monospace" font-size="14">67c5dabe9544eae86290 | proxy=uniform_bar_volume | freeze=2025-01-08T16:00:00-05:00</text>
<text x="50" y="48" font-family="monospace" font-size="11">synthetic completed 1m source candles; vertical rules = source start/freeze</text>
<line x1="50" y1="55" x2="50" y2="190" stroke="#d62728" stroke-width="2"/>
<line x1="700" y1="55" x2="700" y2="190" stroke="#d62728" stroke-width="2"/>
<line x1="55.00" y1="125.00" x2="55.00" y2="125.00" stroke="#2ca02c"/>
<rect x="53.00" y="125.00" width="4" height="1.00" fill="#2ca02c"/>
<line x1="65.85" y1="125.00" x2="65.85" y2="125.00" stroke="#2ca02c"/>
<rect x="63.85" y="125.00" width="4" height="1.00" fill="#2ca02c"/>
<line x1="76.69" y1="125.00" x2="76.69" y2="125.00" stroke="#2ca02c"/>
<rect x="74.69" y="125.00" width="4" height="1.00" fill="#2ca02c"/>
<line x1="87.54" y1="125.00" x2="87.54" y2="125.00" stroke="#2ca02c"/>
<rect x="85.54" y="125.00" width="4" height="1.00" fill="#2ca02c"/>
<line x1="98.39" y1="125.00" x2="98.39" y2="125.00" stroke="#2ca02c"/>
<rect x="96.39" y="125.00" width="4" height="1.00" fill="#2ca02c"/>
<line x1="109.24" y1="125.00" x2="109.24" y2="125.00" stroke="#2ca02c"/>
<rect x="107.24" y="125.00" width="4" height="1.00" fill="#2ca02c"/>
<line x1="120.08" y1="125.00" x2="120.08" y2="125.00" stroke="#2ca02c"/>
<rect x="118.08" y="125.00" width="4" height="1.00" fill="#2ca02c"/>
<line x1="130.93" y1="125.00" x2="130.93" y2="125.00" stroke="#2ca02c"/>
<rect x="128.93" y="125.00" width="4" height="1.00" fill="#2ca02c"/>
<line x1="141.78" y1="125.00" x2="141.78" y2="125.00" stroke="#2ca02c"/>
<rect x="139.78" y="125.00" width="4" height="1.00" fill="#2ca02c"/>
<line x1="152.63" y1="125.00" x2="152.63" y2="125.00" stroke="#2ca02c"/>
<rect x="150.63" y="125.00" width="4" height="1.00" fill="#2ca02c"/>
<line x1="163.47" y1="125.00" x2="163.47" y2="125.00" stroke="#2ca02c"/>
<rect x="161.47" y="125.00" width="4" height="1.00" fill="#2ca02c"/>
<line x1="174.32" y1="125.00" x2="174.32" y2="125.00" stroke="#2ca02c"/>
<rect x="172.32" y="125.00" width="4" height="1.00" fill="#2ca02c"/>
<line x1="185.17" y1="125.00" x2="185.17" y2="125.00" stroke="#2ca02c"/>
<rect x="183.17" y="125.00" width="4" height="1.00" fill="#2ca02c"/>
<line x1="196.02" y1="125.00" x2="196.02" y2="125.00" stroke="#2ca02c"/>
<rect x="194.02" y="125.00" width="4" height="1.00" fill="#2ca02c"/>
<line x1="206.86" y1="125.00" x2="206.86" y2="125.00" stroke="#2ca02c"/>
<rect x="204.86" y="125.00" width="4" height="1.00" fill="#2ca02c"/>
<line x1="217.71" y1="125.00" x2="217.71" y2="125.00" stroke="#2ca02c"/>
<rect x="215.71" y="125.00" width="4" height="1.00" fill="#2ca02c"/>
<line x1="228.56" y1="125.00" x2="228.56" y2="125.00" stroke="#2ca02c"/>
<rect x="226.56" y="125.00" width="4" height="1.00" fill="#2ca02c"/>
<line x1="239.41" y1="125.00" x2="239.41" y2="125.00" stroke="#2ca02c"/>
<rect x="237.41" y="125.00" width="4" height="1.00" fill="#2ca02c"/>
<line x1="250.25" y1="125.00" x2="250.25" y2="125.00" stroke="#2ca02c"/>
<rect x="248.25" y="125.00" width="4" height="1.00" fill="#2ca02c"/>
<line x1="261.10" y1="125.00" x2="261.10" y2="125.00" stroke="#2ca02c"/>
<rect x="259.10" y="125.00" width="4" height="1.00" fill="#2ca02c"/>
<line x1="271.95" y1="125.00" x2="271.95" y2="125.00" stroke="#2ca02c"/>
<rect x="269.95" y="125.00" width="4" height="1.00" fill="#2ca02c"/>
<line x1="282.80" y1="125.00" x2="282.80" y2="125.00" stroke="#2ca02c"/>
<rect x="280.80" y="125.00" width="4" height="1.00" fill="#2ca02c"/>
<line x1="293.64" y1="125.00" x2="293.64" y2="125.00" stroke="#2ca02c"/>
<rect x="291.64" y="125.00" width="4" height="1.00" fill="#2ca02c"/>
<line x1="304.49" y1="125.00" x2="304.49" y2="125.00" stroke="#2ca02c"/>
<rect x="302.49" y="125.00" width="4" height="1.00" fill="#2ca02c"/>
<line x1="315.34" y1="125.00" x2="315.34" y2="125.00" stroke="#2ca02c"/>
<rect x="313.34" y="125.00" width="4" height="1.00" fill="#2ca02c"/>
<line x1="326.19" y1="125.00" x2="326.19" y2="125.00" stroke="#2ca02c"/>
<rect x="324.19" y="125.00" width="4" height="1.00" fill="#2ca02c"/>
<line x1="337.03" y1="125.00" x2="337.03" y2="125.00" stroke="#2ca02c"/>
<rect x="335.03" y="125.00" width="4" height="1.00" fill="#2ca02c"/>
<line x1="347.88" y1="125.00" x2="347.88" y2="125.00" stroke="#2ca02c"/>
<rect x="345.88" y="125.00" width="4" height="1.00" fill="#2ca02c"/>
<line x1="358.73" y1="125.00" x2="358.73" y2="125.00" stroke="#2ca02c"/>
<rect x="356.73" y="125.00" width="4" height="1.00" fill="#2ca02c"/>
<line x1="369.58" y1="125.00" x2="369.58" y2="125.00" stroke="#2ca02c"/>
<rect x="367.58" y="125.00" width="4" height="1.00" fill="#2ca02c"/>
<line x1="380.42" y1="125.00" x2="380.42" y2="125.00" stroke="#2ca02c"/>
<rect x="378.42" y="125.00" width="4" height="1.00" fill="#2ca02c"/>
<line x1="391.27" y1="125.00" x2="391.27" y2="125.00" stroke="#2ca02c"/>
<rect x="389.27" y="125.00" width="4" height="1.00" fill="#2ca02c"/>
<line x1="402.12" y1="125.00" x2="402.12" y2="125.00" stroke="#2ca02c"/>
<rect x="400.12" y="125.00" width="4" height="1.00" fill="#2ca02c"/>
<line x1="412.97" y1="125.00" x2="412.97" y2="125.00" stroke="#2ca02c"/>
<rect x="410.97" y="125.00" width="4" height="1.00" fill="#2ca02c"/>
<line x1="423.81" y1="125.00" x2="423.81" y2="125.00" stroke="#2ca02c"/>
<rect x="421.81" y="125.00" width="4" height="1.00" fill="#2ca02c"/>
<line x1="434.66" y1="125.00" x2="434.66" y2="125.00" stroke="#2ca02c"/>
<rect x="432.66" y="125.00" width="4" height="1.00" fill="#2ca02c"/>
<line x1="445.51" y1="185.00" x2="445.51" y2="185.00" stroke="#2ca02c"/>
<rect x="443.51" y="185.00" width="4" height="1.00" fill="#2ca02c"/>
<line x1="456.36" y1="170.00" x2="456.36" y2="170.00" stroke="#2ca02c"/>
<rect x="454.36" y="170.00" width="4" height="1.00" fill="#2ca02c"/>
<line x1="467.20" y1="155.00" x2="467.20" y2="155.00" stroke="#2ca02c"/>
<rect x="465.20" y="155.00" width="4" height="1.00" fill="#2ca02c"/>
<line x1="478.05" y1="140.00" x2="478.05" y2="140.00" stroke="#2ca02c"/>
<rect x="476.05" y="140.00" width="4" height="1.00" fill="#2ca02c"/>
<line x1="488.90" y1="110.00" x2="488.90" y2="110.00" stroke="#2ca02c"/>
<rect x="486.90" y="110.00" width="4" height="1.00" fill="#2ca02c"/>
<line x1="499.75" y1="95.00" x2="499.75" y2="95.00" stroke="#2ca02c"/>
<rect x="497.75" y="95.00" width="4" height="1.00" fill="#2ca02c"/>
<line x1="510.59" y1="80.00" x2="510.59" y2="80.00" stroke="#2ca02c"/>
<rect x="508.59" y="80.00" width="4" height="1.00" fill="#2ca02c"/>
<line x1="521.44" y1="65.00" x2="521.44" y2="65.00" stroke="#2ca02c"/>
<rect x="519.44" y="65.00" width="4" height="1.00" fill="#2ca02c"/>
<line x1="532.29" y1="177.50" x2="532.29" y2="177.50" stroke="#2ca02c"/>
<rect x="530.29" y="177.50" width="4" height="1.00" fill="#2ca02c"/>
<line x1="543.14" y1="147.50" x2="543.14" y2="147.50" stroke="#2ca02c"/>
<rect x="541.14" y="147.50" width="4" height="1.00" fill="#2ca02c"/>
<line x1="553.98" y1="102.50" x2="553.98" y2="102.50" stroke="#2ca02c"/>
<rect x="551.98" y="102.50" width="4" height="1.00" fill="#2ca02c"/>
<line x1="564.83" y1="72.50" x2="564.83" y2="72.50" stroke="#2ca02c"/>
<rect x="562.83" y="72.50" width="4" height="1.00" fill="#2ca02c"/>
<line x1="575.68" y1="185.00" x2="575.68" y2="185.00" stroke="#2ca02c"/>
<rect x="573.68" y="185.00" width="4" height="1.00" fill="#2ca02c"/>
<line x1="586.53" y1="170.00" x2="586.53" y2="170.00" stroke="#2ca02c"/>
<rect x="584.53" y="170.00" width="4" height="1.00" fill="#2ca02c"/>
<line x1="597.37" y1="155.00" x2="597.37" y2="155.00" stroke="#2ca02c"/>
<rect x="595.37" y="155.00" width="4" height="1.00" fill="#2ca02c"/>
<line x1="608.22" y1="140.00" x2="608.22" y2="140.00" stroke="#2ca02c"/>
<rect x="606.22" y="140.00" width="4" height="1.00" fill="#2ca02c"/>
<line x1="619.07" y1="110.00" x2="619.07" y2="110.00" stroke="#2ca02c"/>
<rect x="617.07" y="110.00" width="4" height="1.00" fill="#2ca02c"/>
<line x1="629.92" y1="95.00" x2="629.92" y2="95.00" stroke="#2ca02c"/>
<rect x="627.92" y="95.00" width="4" height="1.00" fill="#2ca02c"/>
<line x1="640.76" y1="80.00" x2="640.76" y2="80.00" stroke="#2ca02c"/>
<rect x="638.76" y="80.00" width="4" height="1.00" fill="#2ca02c"/>
<line x1="651.61" y1="65.00" x2="651.61" y2="65.00" stroke="#2ca02c"/>
<rect x="649.61" y="65.00" width="4" height="1.00" fill="#2ca02c"/>
<line x1="662.46" y1="177.50" x2="662.46" y2="177.50" stroke="#2ca02c"/>
<rect x="660.46" y="177.50" width="4" height="1.00" fill="#2ca02c"/>
<line x1="673.31" y1="147.50" x2="673.31" y2="147.50" stroke="#2ca02c"/>
<rect x="671.31" y="147.50" width="4" height="1.00" fill="#2ca02c"/>
<line x1="684.15" y1="102.50" x2="684.15" y2="102.50" stroke="#2ca02c"/>
<rect x="682.15" y="102.50" width="4" height="1.00" fill="#2ca02c"/>
<line x1="695.00" y1="72.50" x2="695.00" y2="72.50" stroke="#2ca02c"/>
<rect x="693.00" y="72.50" width="4" height="1.00" fill="#2ca02c"/>
<text x="50" y="215" font-family="monospace" font-size="11">frozen profile histogram: orange=POC, purple=peak candidate; candidate/node ledgers contain baseline windows and qualification</text>
<rect x="50" y="225.00" width="36.11" height="22.08" fill="#4c78a8"/>
<text x="715" y="242.31" font-family="monospace" font-size="10">20996.00</text>
<rect x="50" y="248.08" width="36.11" height="22.08" fill="#4c78a8"/>
<text x="715" y="265.38" font-family="monospace" font-size="10">20996.50</text>
<rect x="50" y="271.15" width="36.11" height="22.08" fill="#4c78a8"/>
<text x="715" y="288.46" font-family="monospace" font-size="10">20997.00</text>
<rect x="50" y="294.23" width="36.11" height="22.08" fill="#4c78a8"/>
<text x="715" y="311.54" font-family="monospace" font-size="10">20998.00</text>
<rect x="50" y="317.31" width="36.11" height="22.08" fill="#4c78a8"/>
<text x="715" y="334.62" font-family="monospace" font-size="10">20998.50</text>
<rect x="50" y="340.38" width="36.11" height="22.08" fill="#4c78a8"/>
<text x="715" y="357.69" font-family="monospace" font-size="10">20999.00</text>
<rect x="50" y="363.46" width="650.00" height="22.08" fill="#8e44ad"/>
<text x="715" y="380.77" font-family="monospace" font-size="10">21000.00</text>
<rect x="50" y="386.54" width="36.11" height="22.08" fill="#4c78a8"/>
<text x="715" y="403.85" font-family="monospace" font-size="10">21001.00</text>
<rect x="50" y="409.62" width="36.11" height="22.08" fill="#4c78a8"/>
<text x="715" y="426.92" font-family="monospace" font-size="10">21001.50</text>
<rect x="50" y="432.69" width="36.11" height="22.08" fill="#4c78a8"/>
<text x="715" y="450.00" font-family="monospace" font-size="10">21002.00</text>
<rect x="50" y="455.77" width="36.11" height="22.08" fill="#4c78a8"/>
<text x="715" y="473.08" font-family="monospace" font-size="10">21003.00</text>
<rect x="50" y="478.85" width="36.11" height="22.08" fill="#4c78a8"/>
<text x="715" y="496.15" font-family="monospace" font-size="10">21003.50</text>
<rect x="50" y="501.92" width="36.11" height="22.08" fill="#4c78a8"/>
<text x="715" y="519.23" font-family="monospace" font-size="10">21004.00</text>
<text x="20" y="544" font-family="monospace" font-size="12">ATR@2025-01-08T09:30:00-05:00=4 bin=0.50 source_vol=600 allocated=600 nodes=1</text>
</svg>